<svg fill="none" viewBox="0 0 50 50" xmlns="http://www.w3.org/2000/svg" role="img" aria-label="MFI">
  <title>MFI</title>
  <rect width="50" height="50" rx="12" fill="#2490EF"/>
  <!-- Group/organization mark: three abstract figures + base -->
  <circle cx="17" cy="19" r="3.2" fill="white"/>
  <circle cx="25" cy="15.5" r="3.2" fill="white"/>
  <circle cx="33" cy="19" r="3.2" fill="white"/>
  <path d="M 11.5 31 C 11.5 27 13.2 24.5 17 24.5 H 19.5 C 17.8 26.2 17.8 29 19.5 31 H 11.5 Z" fill="white" opacity="0.95"/>
  <path d="M 19.5 31 C 17.8 29 17.8 26.2 19.5 24.5 H 30.5 C 32.2 26.2 32.2 29 30.5 31 H 19.5 Z" fill="white"/>
  <path d="M 30.5 31 C 32.2 29 32.2 26.2 30.5 24.5 H 33 C 36.8 24.5 38.5 27 38.5 31 H 30.5 Z" fill="white" opacity="0.95"/>
  <rect x="11.5" y="33.5" width="27" height="2.6" rx="1.3" fill="white" opacity="0.85"/>
</svg>
